<svg xmlns="http://www.w3.org/2000/svg" viewBox="0 0 500 500"><g id="freepik--background-simple--inject-29"><path d="M328.81,27.52l-1.62,1.31c-13.66,11-20.43,28.55-17,45.61A44,44,0,0,0,312,80.91a49.38,49.38,0,0,0,35,30.81c9.36,2.12,19.75,1.67,27.67,7,10.3,7,12.47,20.84,13.73,33.12s3.47,26.16,13.8,33.07c6.48,4.33,14.93,4.85,22.62,3.39,20.38-3.85,36.8-20.62,43.47-40s4.61-40.93-2.08-60.3c-9.37-27.12-28.37-51.56-54.36-64.29S352.83,11.3,328.81,27.52Z" style="fill:#f5f5f5"></path><circle cx="81.06" cy="84.81" r="51.03" style="fill:#f5f5f5"></circle><circle cx="435.81" cy="350.61" r="30.27" transform="translate(-99.8 189.43) rotate(-22.07)" style="fill:#f5f5f5"></circle></g><g id="freepik--Floor--inject-29"><path d="M455.69,472c0,.14-92.1.26-205.69.26S44.29,472.16,44.29,472s92.08-.26,205.71-.26S455.69,471.88,455.69,472Z" style="fill:#263238"></path></g><g id="freepik--Bag--inject-29"><path d="M417.58,418a28.41,28.41,0,0,0-1.74-6.37,17.5,17.5,0,0,0-4-5.84,11.11,11.11,0,0,0-15.62-.06,17.4,17.4,0,0,0-4,5.83,28.23,28.23,0,0,0-1.77,6.36,1.35,1.35,0,0,1,0-.46,11,11,0,0,1,.14-1.32,19.53,19.53,0,0,1,1.29-4.72,17.49,17.49,0,0,1,4-6,11.5,11.5,0,0,1,16.28.05,17.71,17.71,0,0,1,4,6.05,19.79,19.79,0,0,1,1.27,4.72,10.77,10.77,0,0,1,.13,1.32A1.4,1.4,0,0,1,417.58,418Z" style="fill:#263238"></path><path d="M422.27,418a28.41,28.41,0,0,0-1.74-6.37,17.5,17.5,0,0,0-4-5.84,11.11,11.11,0,0,0-15.62-.06,17.59,17.59,0,0,0-4,5.83,28.47,28.47,0,0,0-1.76,6.36,1.35,1.35,0,0,1,0-.46,13,13,0,0,1,.13-1.32,20.13,20.13,0,0,1,1.3-4.72,17.49,17.49,0,0,1,4-6,11.5,11.5,0,0,1,16.28.05,17.52,17.52,0,0,1,4,6.05,19.9,19.9,0,0,1,1.28,4.72,10.77,10.77,0,0,1,.13,1.32A1.4,1.4,0,0,1,422.27,418Z" style="fill:#263238"></path><polygon points="374.67 415.19 427.62 414.87 428.77 472.34 369.36 472.34 374.67 415.19" style="fill:#455a64"></polygon><polygon points="427.62 414.87 434.26 414.87 439.99 472.34 428.77 472.34 427.62 414.87" style="fill:#263238"></polygon><rect x="383.93" y="434.39" width="34.66" height="5.81" style="fill:#fff"></rect></g><g id="freepik--Device--inject-29"><path d="M377.61,449.52H129.45a12.37,12.37,0,0,1-12.16-12.58V57.6A12.38,12.38,0,0,1,129.45,45H377.62A12.38,12.38,0,0,1,389.78,57.6V436.94A12.38,12.38,0,0,1,377.61,449.52Z" style="fill:#e0e0e0"></path><path d="M377.61,449.52l.87-.06a7,7,0,0,0,1.06-.13A10.64,10.64,0,0,0,381,449a12.1,12.1,0,0,0,3.74-1.92,12.33,12.33,0,0,0,3.67-4.47,12.82,12.82,0,0,0,1.09-3.32,20.41,20.41,0,0,0,.21-3.89c0-2.74,0-5.74,0-9,0-6.49,0-14,0-22.41,0-33.72-.05-82.52-.09-142.81,0-30.15,0-63.17,0-98.62q0-26.58,0-54.93,0-14.17,0-28.74V64.24c0-2.45,0-4.94,0-7.39a11.75,11.75,0,0,0-.72-3.56,12.27,12.27,0,0,0-7.58-7.46,12.8,12.8,0,0,0-3.63-.57H129.48a11.75,11.75,0,0,0-7.71,2.92,12.45,12.45,0,0,0-4,7.2,23.71,23.71,0,0,0-.2,4.23V172.46c0,43.38,0,85.23,0,125.1s0,77.74,0,113.19q0,13.31,0,26.13a13.13,13.13,0,0,0,1.49,6,12.17,12.17,0,0,0,6.94,5.85,12,12,0,0,0,3,.52c2.06.06,4.14,0,6.19,0l47.32,0,142.8.08,38.83.05,10.1,0,3.43,0-3.43,0-10.1,0-38.83.05-142.8.08-47.32,0c-2.06,0-4.11,0-6.21,0a12.28,12.28,0,0,1-3.12-.53,12.62,12.62,0,0,1-7.18-6.05,13.45,13.45,0,0,1-1.54-6.23q0-12.83,0-26.13c0-35.45,0-73.33,0-113.19s0-81.72,0-125.1V59.63a24.24,24.24,0,0,1,.21-4.32,12.92,12.92,0,0,1,4.19-7.5,12.33,12.33,0,0,1,8-3H377.57a13.1,13.1,0,0,1,3.78.6,12.49,12.49,0,0,1,6.08,4.42,12,12,0,0,1,1.79,3.33,12.38,12.38,0,0,1,.76,3.7c.07,2.5,0,5,0,7.41V78.9q0,14.56,0,28.74,0,28.32,0,54.93c0,35.45,0,68.47,0,98.62,0,60.29-.06,109.09-.08,142.81,0,8.43,0,15.92,0,22.41,0,3.24,0,6.24,0,9a19.87,19.87,0,0,1-.23,3.91,12.68,12.68,0,0,1-1.11,3.35,12.48,12.48,0,0,1-3.72,4.49A12.1,12.1,0,0,1,381,449a10.47,10.47,0,0,1-1.46.33,8.49,8.49,0,0,1-1.07.12Z" style="fill:#263238"></path><path d="M258.28,431.12a11.56,11.56,0,1,1-11.55-11.35A11.45,11.45,0,0,1,258.28,431.12Z" style="fill:#fff"></path><path d="M281.45,66.4H225.8a4,4,0,0,1-3.88-4h0a4,4,0,0,1,3.88-4h55.65a4,4,0,0,1,3.88,4h0A4,4,0,0,1,281.45,66.4Z" style="fill:#263238"></path><rect x="125.64" y="73.88" width="255.31" height="337.8" style="fill:#fff"></rect><path d="M381,411.69c0-2.05-.1-137.6-.23-337.81l.23.23-255.28,0h0l.26-.26c0,125.74,0,242.32-.05,337.81l-.21-.22,255.31.22-255.31.21h-.21v-.21c0-95.49,0-212.07,0-337.81v-.26h.28l255.28,0h.23v.23C381,274.09,381,409.64,381,411.69Z" style="fill:#263238"></path><path d="M106,92.57h49.36a0,0,0,0,1,0,0v33a22.82,22.82,0,0,1-22.82,22.82h-3.72A22.82,22.82,0,0,1,106,125.59v-33a0,0,0,0,1,0,0Z" style="fill:#FF725E"></path><path d="M155,92.57h49.36a0,0,0,0,1,0,0v33a22.82,22.82,0,0,1-22.82,22.82h-3.72A22.82,22.82,0,0,1,155,125.59v-33a0,0,0,0,1,0,0Z" style="fill:#FF725E"></path><path d="M204,92.57h49.36a0,0,0,0,1,0,0v33a22.82,22.82,0,0,1-22.82,22.82h-3.72A22.82,22.82,0,0,1,204,125.59v-33A0,0,0,0,1,204,92.57Z" style="fill:#FF725E"></path><path d="M253,92.57h49.35a0,0,0,0,1,0,0v33a22.82,22.82,0,0,1-22.82,22.82h-3.72A22.82,22.82,0,0,1,253,125.59v-33A0,0,0,0,1,253,92.57Z" style="fill:#FF725E"></path><path d="M301.92,92.57h49.36a0,0,0,0,1,0,0v33a22.82,22.82,0,0,1-22.82,22.82h-3.72a22.82,22.82,0,0,1-22.82-22.82v-33A0,0,0,0,1,301.92,92.57Z" style="fill:#FF725E"></path><path d="M350.89,92.57h49.36a0,0,0,0,1,0,0v33a22.82,22.82,0,0,1-22.82,22.82h-3.72a22.82,22.82,0,0,1-22.82-22.82v-33A0,0,0,0,1,350.89,92.57Z" style="fill:#FF725E"></path><g style="opacity:0.30000000000000004"><path d="M155,92.57h49.36a0,0,0,0,1,0,0v33a22.82,22.82,0,0,1-22.82,22.82h-3.72A22.82,22.82,0,0,1,155,125.59v-33a0,0,0,0,1,0,0Z" style="fill:#fff"></path></g><g style="opacity:0.30000000000000004"><path d="M253,92.57h49.35a0,0,0,0,1,0,0v33a22.82,22.82,0,0,1-22.82,22.82h-3.72A22.82,22.82,0,0,1,253,125.59v-33A0,0,0,0,1,253,92.57Z" style="fill:#fff"></path></g><g style="opacity:0.30000000000000004"><path d="M350.89,92.57h49.36a0,0,0,0,1,0,0v33a22.82,22.82,0,0,1-22.82,22.82h-3.72a22.82,22.82,0,0,1-22.82-22.82v-33A0,0,0,0,1,350.89,92.57Z" style="fill:#fff"></path></g><path d="M155.41,92c.14,0,.26,8.66.26,19.34s-.12,19.34-.26,19.34-.26-8.66-.26-19.34S155.27,92,155.41,92Z" style="fill:#263238"></path><path d="M204.38,92c.14,0,.25,8.66.25,19.34s-.11,19.34-.25,19.34-.26-8.66-.26-19.34S204.23,92,204.38,92Z" style="fill:#263238"></path><path d="M253.35,92c.14,0,.25,8.66.25,19.34s-.11,19.34-.25,19.34-.26-8.66-.26-19.34S253.2,92,253.35,92Z" style="fill:#263238"></path><path d="M302.31,92c.15,0,.26,8.66.26,19.34s-.11,19.34-.26,19.34-.25-8.66-.25-19.34S302.17,92,302.31,92Z" style="fill:#263238"></path><path d="M351.28,92c.15,0,.26,8.66.26,19.34s-.11,19.34-.26,19.34S351,122,351,111.3,351.14,92,351.28,92Z" style="fill:#263238"></path><polygon points="400.25 92.67 381.13 73.88 125.73 73.88 106.05 92.67 400.25 92.67" style="fill:#FF725E"></polygon><path d="M393.25,92.41c0,.14-64.3.31-143.59.39s-143.61,0-143.61-.13,64.28-.32,143.61-.39S393.25,92.26,393.25,92.41Z" style="fill:#263238"></path><rect x="150.6" y="260.83" width="38.74" height="7.92" rx="3.39" style="fill:#e0e0e0"></rect><rect x="217.63" y="260.3" width="18.76" height="7.32" rx="3.39" style="fill:#FF725E"></rect><rect x="150.6" y="391.07" width="38.74" height="7.92" rx="3.39" style="fill:#e0e0e0"></rect><rect x="212.9" y="391.07" width="20.29" height="7.92" rx="3.39" style="fill:#FF725E"></rect><rect x="278.1" y="261.97" width="38.74" height="7.92" rx="3.39" style="fill:#e0e0e0"></rect><rect x="340.53" y="261.97" width="20.29" height="7.92" rx="3.39" style="fill:#FF725E"></rect><rect x="278.54" y="392.22" width="38.74" height="7.92" rx="3.39" style="fill:#e0e0e0"></rect><rect x="340.97" y="392.22" width="20.29" height="7.92" rx="3.39" style="fill:#FF725E"></rect><rect x="143.79" y="158.25" width="91.1" height="91.1" rx="11.65" style="fill:#fafafa"></rect><path d="M223.25,249.36s.3,0,.88-.07a14,14,0,0,0,2.55-.5,12.16,12.16,0,0,0,3.7-2,11.65,11.65,0,0,0,3.46-4.51,12.12,12.12,0,0,0,.87-3.3c.1-1.19.06-2.46.06-3.79,0-2.65,0-5.53,0-8.62,0-6.19,0-13.24,0-21s0-16.32,0-25.48q0-3.44,0-7c0-2.36.21-4.8-.69-7.05a11.46,11.46,0,0,0-4.4-5.64,11.9,11.9,0,0,0-7.11-1.91l-67,0a11.4,11.4,0,0,0-11.37,10.72c-.07,5.76,0,11.48,0,17.08,0,11.21,0,22,0,32.33q0,7.73,0,15.05c0,1.22,0,2.43,0,3.64a12.15,12.15,0,0,0,.44,3.47,11.39,11.39,0,0,0,3.66,5.68,11.25,11.25,0,0,0,6,2.59,32,32,0,0,0,3.25.08h15.45l36.91.09,10,0,2.61,0,.89,0-.89,0-2.61,0-10,.05-36.91.08-12.22,0h-3.23c-1.08,0-2.17,0-3.3-.08a12.63,12.63,0,0,1-3.28-.87,13.18,13.18,0,0,1-2.95-1.8,12,12,0,0,1-3.81-5.89,12.41,12.41,0,0,1-.45-3.59c0-1.21,0-2.42,0-3.64q0-7.32,0-15.05c0-10.3,0-21.12,0-32.33,0-5.61,0-11.29,0-17.11A11.89,11.89,0,0,1,155.45,158l67,0a12.33,12.33,0,0,1,7.37,2,12,12,0,0,1,4.57,5.87,11.55,11.55,0,0,1,.69,3.62c0,1.21,0,2.39,0,3.58v7c0,9.16,0,17.69,0,25.48s0,14.84,0,21c0,3.09,0,6,0,8.62,0,1.33,0,2.6-.09,3.82a12.6,12.6,0,0,1-.9,3.35,11.91,11.91,0,0,1-3.55,4.55,12.2,12.2,0,0,1-3.77,2,12.58,12.58,0,0,1-2.57.45Z" style="fill:#FF725E"></path><path d="M225.7,201.22s-9.41-19.06-10.85-20.51a14.3,14.3,0,0,0-3.44-2.1,17.64,17.64,0,0,0-2.17-.94l-.15-.06h0c-4.06-1.5-10.42-3-10.42-3s-1.62,5.52-9.33,5.92c-7.7-.4-9.32-5.92-9.32-5.92s-6.37,1.54-10.42,3h0l-.16.06a17.42,17.42,0,0,0-2.16.94,13.91,13.91,0,0,0-3.44,2.1c-1.45,1.45-10.85,20.51-10.85,20.51l13.75,6.88,4.18-9.51L170,233h39l-1.17-34.45,4.18,9.51Z" style="fill:#FF725E"></path><path d="M170.92,207.12a21.37,21.37,0,0,1-.1-3.15c0-2,0-4.68.08-7.75l0,.1-.55-1.36c-1.26-3.18-2.38-6.06-3.17-8.15-.39-1.05-.7-1.9-.9-2.5a4.08,4.08,0,0,1-.27-.93,3.46,3.46,0,0,1,.45.86c.27.57.63,1.4,1.06,2.43.87,2.06,2,4.92,3.31,8.09.18.47.37.93.54,1.37l0,.05v0c-.07,3.07-.16,5.79-.25,7.75A20.21,20.21,0,0,1,170.92,207.12Z" style="fill:#263238"></path><path d="M207.68,207.12a21.21,21.21,0,0,1-.23-3.14c-.09-2-.18-4.68-.25-7.75v0l0-.05c.17-.44.35-.9.54-1.37,1.26-3.17,2.43-6,3.31-8.09.43-1,.79-1.86,1.05-2.43s.42-.88.46-.86a4.08,4.08,0,0,1-.27.93c-.2.6-.51,1.45-.91,2.5-.78,2.09-1.9,5-3.16,8.15l-.55,1.36,0-.1c.06,3.07.08,5.79.08,7.75A20.35,20.35,0,0,1,207.68,207.12Z" style="fill:#263238"></path><path d="M200.07,203.8s.39,0,1.05-.21a4.53,4.53,0,0,0,3.25-3.44,14.63,14.63,0,0,0,.07-2.43c0-1.77,0-3.73,0-5.83l.25.24H193.82l.25-.25c0,2.31,0,4.48,0,6.44,0,.49,0,1,0,1.4a4.34,4.34,0,0,0,1.69,3,4.81,4.81,0,0,0,3.09,1,6.27,6.27,0,0,1,1.23.08,5.69,5.69,0,0,1-1.23.09,4.8,4.8,0,0,1-3.28-.88,4.72,4.72,0,0,1-1.54-1.89,4.82,4.82,0,0,1-.37-1.34c-.05-.49,0-1-.05-1.45,0-2,0-4.13,0-6.44v-.25H204.9v.25c0,2.1,0,4.06,0,5.83a13.59,13.59,0,0,1-.13,2.5,4.75,4.75,0,0,1-1,2,4.54,4.54,0,0,1-2.6,1.57,3.39,3.39,0,0,1-.81.08C200.17,203.83,200.07,203.82,200.07,203.8Z" style="fill:#263238"></path><rect x="143.79" y="287.31" width="91.1" height="91.1" rx="11.65" style="fill:#fafafa"></rect><path d="M223.25,378.42s.3,0,.88-.08a13,13,0,0,0,2.55-.49,12.16,12.16,0,0,0,3.7-2,11.65,11.65,0,0,0,3.46-4.51,12.12,12.12,0,0,0,.87-3.3c.1-1.19.06-2.46.06-3.79,0-2.65,0-5.53,0-8.62,0-6.19,0-13.24,0-21s0-16.32,0-25.48q0-3.43,0-7c0-2.36.21-4.8-.69-7a11.46,11.46,0,0,0-4.4-5.64,11.9,11.9,0,0,0-7.11-1.91l-67,0a11.4,11.4,0,0,0-11.37,10.72c-.07,5.75,0,11.48,0,17.08,0,11.21,0,22,0,32.33q0,7.73,0,15.05c0,1.22,0,2.43,0,3.64a12.15,12.15,0,0,0,.44,3.47,11.44,11.44,0,0,0,3.66,5.68,11.25,11.25,0,0,0,6,2.59,32,32,0,0,0,3.25.08h15.45l36.91.09,10,0,2.61,0,.89,0-.89,0-2.61,0-10,0-36.91.08H157.36c-1.08,0-2.17,0-3.3-.08a12.63,12.63,0,0,1-3.28-.87,13.18,13.18,0,0,1-2.95-1.8A12,12,0,0,1,144,370a12.41,12.41,0,0,1-.45-3.59c0-1.21,0-2.42,0-3.64q0-7.32,0-15.05c0-10.3,0-21.12,0-32.33,0-5.61,0-11.3,0-17.11a11.89,11.89,0,0,1,11.88-11.2l67,0a12.33,12.33,0,0,1,7.37,2,12,12,0,0,1,4.57,5.87,11.5,11.5,0,0,1,.69,3.62c0,1.21,0,2.39,0,3.58v7c0,9.16,0,17.69,0,25.48s0,14.84,0,21c0,3.09,0,6,0,8.62,0,1.33,0,2.6-.09,3.82a12.42,12.42,0,0,1-.9,3.34,11.88,11.88,0,0,1-3.55,4.56,12.2,12.2,0,0,1-3.77,2,12.58,12.58,0,0,1-2.57.45Z" style="fill:#e0e0e0"></path><path d="M198.67,303.63s6.36,1.54,10.42,3h0l.15.06a17.64,17.64,0,0,1,2.17.94,14.3,14.3,0,0,1,3.44,2.1c1.44,1.45,10.85,20.51,10.85,20.51l-13.76,6.88-4.18-9.51,1.17,34.45H170l.95-34.45-4.18,9.51L153,330.28s9.4-19.06,10.85-20.51a13.91,13.91,0,0,1,3.44-2.1,17.42,17.42,0,0,1,2.16-.94l.16-.06h0c4.05-1.5,10.42-3,10.42-3l1.09-3.71,7.89,5.26,8.83-5.26Z" style="fill:#e0e0e0"></path><path d="M170.92,336.18a21.37,21.37,0,0,1-.1-3.15c0-2,0-4.68.08-7.75l0,.1-.55-1.37c-1.26-3.17-2.38-6.05-3.17-8.14-.39-1.05-.7-1.9-.9-2.5a3.92,3.92,0,0,1-.27-.94,4,4,0,0,1,.45.87c.27.57.63,1.4,1.06,2.43.87,2.06,2,4.92,3.31,8.09.18.47.37.93.54,1.37l0,.05v.05c-.07,3.07-.16,5.79-.25,7.75A20.21,20.21,0,0,1,170.92,336.18Z" style="fill:#263238"></path><path d="M208.06,336.46a21.74,21.74,0,0,1-.35-3.22c-.15-2-.33-4.8-.51-7.94v-.06l0-.05.48-1.23c1.28-3.21,2.47-6.1,3.35-8.19.44-1,.8-1.88,1.07-2.46a3.28,3.28,0,0,1,.46-.88,3.85,3.85,0,0,1-.28,1c-.2.59-.52,1.46-.91,2.52-.8,2.12-1.93,5-3.21,8.24l-.49,1.23,0-.11c.16,3.14.28,5.94.35,8A21.19,21.19,0,0,1,208.06,336.46Z" style="fill:#263238"></path><path d="M200.07,332.86s.39,0,1.05-.21a4.53,4.53,0,0,0,3.25-3.44,14.63,14.63,0,0,0,.07-2.43c0-1.77,0-3.73,0-5.83l.25.24H193.82l.25-.25c0,2.31,0,4.48,0,6.44,0,.49,0,1,0,1.4a4.34,4.34,0,0,0,1.69,3,4.81,4.81,0,0,0,3.09,1,6.27,6.27,0,0,1,1.23.08,5.69,5.69,0,0,1-1.23.09,4.8,4.8,0,0,1-3.28-.88,4.72,4.72,0,0,1-1.54-1.89,4.82,4.82,0,0,1-.37-1.34c-.05-.49,0-1-.05-1.45,0-2,0-4.13,0-6.44v-.25H204.9V321c0,2.1,0,4.06,0,5.83a13.59,13.59,0,0,1-.13,2.5,4.81,4.81,0,0,1-1,2,4.54,4.54,0,0,1-2.6,1.57,3.39,3.39,0,0,1-.81.08C200.17,332.89,200.07,332.88,200.07,332.86Z" style="fill:#263238"></path><path d="M168.27,333.68a54.53,54.53,0,0,1-6.88-3.26,56.55,56.55,0,0,1-6.65-3.72,55,55,0,0,1,6.89,3.26A58.67,58.67,0,0,1,168.27,333.68Z" style="fill:#263238"></path><rect x="272.36" y="159.67" width="91.1" height="91.1" rx="11.65" style="fill:#fafafa"></rect><path d="M351.81,250.77l.89-.07a12.38,12.38,0,0,0,2.54-.5,11.84,11.84,0,0,0,3.7-2,11.61,11.61,0,0,0,3.47-4.51,12.51,12.51,0,0,0,.86-3.29c.11-1.19.06-2.46.07-3.79,0-2.65,0-5.53,0-8.62,0-6.2,0-13.24,0-21s0-16.33,0-25.49q0-3.44,0-7c0-2.37.2-4.8-.69-7a11.43,11.43,0,0,0-4.41-5.64,11.81,11.81,0,0,0-7.11-1.91l-67,0a11.38,11.38,0,0,0-11.36,10.71c-.07,5.76,0,11.49,0,17.09,0,11.21,0,22,0,32.33q0,7.73,0,15.05v3.63a12.26,12.26,0,0,0,.43,3.48,11.55,11.55,0,0,0,3.66,5.67,12,12,0,0,0,2.84,1.75,11.73,11.73,0,0,0,3.16.84,32.1,32.1,0,0,0,3.26.09h3.22l12.23,0,36.9.08,10,.05,2.61,0,.89,0-.89,0-2.61,0-10,.05-36.9.09H285.93c-1.08,0-2.18,0-3.31-.09a12.32,12.32,0,0,1-3.28-.86,12.59,12.59,0,0,1-2.94-1.81,11.88,11.88,0,0,1-3.81-5.88,12.8,12.8,0,0,1-.46-3.6v-3.63q0-7.32,0-15.05c0-10.31,0-21.12,0-32.33,0-5.61,0-11.3,0-17.12A11.91,11.91,0,0,1,284,159.41l67,0a12.38,12.38,0,0,1,7.37,2A12,12,0,0,1,363,167.3a11.06,11.06,0,0,1,.69,3.62c0,1.22,0,2.4,0,3.59,0,2.36,0,4.69,0,7,0,9.16,0,17.7,0,25.49s0,14.83,0,21c0,3.09,0,6,0,8.62,0,1.33,0,2.59-.09,3.81a12.4,12.4,0,0,1-.9,3.35,11.67,11.67,0,0,1-3.55,4.55,11.85,11.85,0,0,1-3.76,2,11.47,11.47,0,0,1-2.58.45C352.11,250.78,351.81,250.77,351.81,250.77Z" style="fill:#e0e0e0"></path><path d="M327.06,176s6.36,1.54,10.42,3h0l.15.06a17.64,17.64,0,0,1,2.17.94,13.69,13.69,0,0,1,3.44,2.1c1.44,1.44,10.85,20.51,10.85,20.51l-13.76,6.88L336.15,200l1.17,34.46h-39l.95-34.46-4.18,9.52-13.75-6.88s9.4-19.07,10.85-20.51a13.34,13.34,0,0,1,3.44-2.1,17.42,17.42,0,0,1,2.16-.94L298,179h0c4.05-1.5,10.42-3,10.42-3l-.15-6.6h18.61Z" style="fill:#455a64"></path><path d="M307.86,233.6l-25.33-15.75a9.29,9.29,0,0,1-2.91-11.56l1.76-3.65,13.75,6.88,19,14.22Z" style="fill:#455a64"></path><path d="M290.19,206.64a1.62,1.62,0,0,1,.35.16l1,.52,3.69,2.07h0c4.22,3.09,11.11,8.2,19,14.14l.19.14-.12.2-2,3.19c-1.47,2.31-2.89,4.55-4.24,6.66l-.13.21-.21-.13-15.35-9.65-4.46-2.86-1.19-.79a2.43,2.43,0,0,1-.39-.29s.16.06.44.22l1.23.71,4.54,2.74L308,233.38l-.34.08c1.34-2.11,2.76-4.36,4.23-6.66l2-3.2.07.35c-7.93-6-14.77-11.13-18.92-14.32h0l-3.62-2.18-.94-.6A1.25,1.25,0,0,1,290.19,206.64Z" style="fill:#263238"></path><path d="M327.42,233.3l25.33-15.75A9.29,9.29,0,0,0,355.66,206l-1.76-3.65-13.75,6.88-19,14.23Z" style="fill:#455a64"></path><path d="M345.09,206.34a1.42,1.42,0,0,1-.31.23l-.94.59-3.62,2.19h0c-4.15,3.18-11,8.36-18.92,14.31l.06-.34,2,3.19,4.23,6.67-.34-.08,15.44-9.5,4.54-2.73,1.23-.72a2,2,0,0,1,.44-.22,2,2,0,0,1-.4.3l-1.18.78-4.46,2.86-15.35,9.65-.21.13-.13-.21L323,226.78c-.69-1.1-1.38-2.18-2-3.2l-.12-.2.19-.14c7.94-5.94,14.83-11.05,19.05-14.13h0l3.69-2.07,1-.53A1.4,1.4,0,0,1,345.09,206.34Z" style="fill:#263238"></path><path d="M311.59,176.69a12.79,12.79,0,0,1-.26-3.59,12.73,12.73,0,0,1,.26-3.59,12.73,12.73,0,0,1,.26,3.59A12.79,12.79,0,0,1,311.59,176.69Z" style="fill:#263238"></path><path d="M315.63,176.69a12.79,12.79,0,0,1-.26-3.59,12.73,12.73,0,0,1,.26-3.59,12.73,12.73,0,0,1,.26,3.59A12.79,12.79,0,0,1,315.63,176.69Z" style="fill:#263238"></path><path d="M319.32,176.61a12.79,12.79,0,0,1-.26-3.59,12.79,12.79,0,0,1,.26-3.59,12.79,12.79,0,0,1,.26,3.59A12.79,12.79,0,0,1,319.32,176.61Z" style="fill:#263238"></path><path d="M323.4,176.61a12.79,12.79,0,0,1-.26-3.59,12.79,12.79,0,0,1,.26-3.59,12.79,12.79,0,0,1,.26,3.59A12.79,12.79,0,0,1,323.4,176.61Z" style="fill:#263238"></path><polygon points="336.47 206.64 299.77 206.64 299.34 197.29 335.84 197.29 336.47 206.64" style="fill:#e0e0e0"></polygon><path d="M299.11,208.19A20.55,20.55,0,0,1,299,205c0-1.95,0-4.68.08-7.74l0,.1c-.15-.38-.3-.78-.46-1.18-1.23-3.13-2.32-6-3.08-8-.38-1-.68-1.87-.88-2.45a3.67,3.67,0,0,1-.26-.93,3.78,3.78,0,0,1,.45.85c.25.57.6,1.38,1,2.4.85,2,2,4.85,3.22,8,.15.4.31.8.46,1.18l0,.05v.05c-.07,3.06-.16,5.78-.25,7.74A20.27,20.27,0,0,1,299.11,208.19Z" style="fill:#263238"></path><path d="M336.44,208.53a19.61,19.61,0,0,1-.34-3.13c-.16-2-.34-4.68-.51-7.75v-.05l0-.06c.17-.43.35-.89.54-1.35,1.26-3.18,2.43-6,3.3-8.1.44-1,.8-1.86,1.06-2.43a4,4,0,0,1,.45-.87,3.13,3.13,0,0,1-.26.94c-.2.59-.51,1.45-.91,2.49-.78,2.1-1.9,5-3.17,8.16-.18.46-.36.92-.54,1.35l0-.1c.16,3.07.28,5.79.34,7.75A19.94,19.94,0,0,1,336.44,208.53Z" style="fill:#263238"></path><path d="M309.61,231.08a30.63,30.63,0,0,1-6.51-4.46,15,15,0,0,1,3.4,2A15.16,15.16,0,0,1,309.61,231.08Z" style="fill:#263238"></path><path d="M311.94,227.71a29.47,29.47,0,0,1-3-2.35,29.38,29.38,0,0,1-3-2.32,13.84,13.84,0,0,1,6,4.67Z" style="fill:#263238"></path><path d="M328.36,223.07a19.91,19.91,0,0,1-5.64,3.16,10.55,10.55,0,0,1,2.69-1.8A10.72,10.72,0,0,1,328.36,223.07Z" style="fill:#263238"></path><path d="M331.21,226.53a10.3,10.3,0,0,1-2.58,1.9,9.88,9.88,0,0,1-2.85,1.47,10.3,10.3,0,0,1,2.58-1.9A9.88,9.88,0,0,1,331.21,226.53Z" style="fill:#263238"></path><path d="M198.33,304a16.28,16.28,0,0,1-1.91,1.79c-1.23,1.08-3,2.59-5.06,4.35l-.23.19-.14-.27-2.26-4.37.47,0,0,.05-1.7,4.32-.13.33-.25-.23c-2.1-1.86-3.89-3.47-5.15-4.63a17.31,17.31,0,0,1-1.93-1.89,19.1,19.1,0,0,1,2.13,1.67c1.31,1.09,3.14,2.65,5.27,4.48l-.39.1,1.67-4.33,0-.06.21-.54.26.51,2.23,4.39-.37-.07c2.1-1.73,3.9-3.19,5.18-4.21A16.9,16.9,0,0,1,198.33,304Z" style="fill:#263238"></path><path d="M189.35,361.82a2.64,2.64,0,0,1-.06-.63c0-.47,0-1.08,0-1.82,0-1.65,0-3.92-.08-6.7,0-5.71,0-13.49-.07-22.08,0-6.9,0-13.27,0-18.44h.41c0,1.19,0,2.29,0,3.33h-.37c0-2.88.06-5.23.08-6.93,0-.78,0-1.4,0-1.89a2.74,2.74,0,0,1,.06-.65,4.66,4.66,0,0,1,.05.65c0,.49,0,1.11,0,1.89,0,1.7.05,4.05.08,6.93h-.37c0-1,0-2.14,0-3.33h.41c0,5.17,0,11.54,0,18.44,0,8.59,0,16.37-.07,22.08,0,2.78-.06,5.05-.08,6.7,0,.74,0,1.35,0,1.82A4.53,4.53,0,0,1,189.35,361.82Z" style="fill:#263238"></path><path d="M223.75,325.83a8.79,8.79,0,0,1-1.79,1.33c-1.14.75-2.77,1.73-4.62,2.7s-3.58,1.75-4.85,2.26a8,8,0,0,1-2.1.71c-.06-.14,3-1.49,6.71-3.43S223.66,325.71,223.75,325.83Z" style="fill:#263238"></path><rect x="272.24" y="286.71" width="91.1" height="91.1" rx="11.65" style="fill:#fafafa"></rect><path d="M351.7,377.81l.89-.07a13.11,13.11,0,0,0,2.54-.5,12.16,12.16,0,0,0,3.7-2,11.57,11.57,0,0,0,3.46-4.51,12.12,12.12,0,0,0,.87-3.3c.1-1.18.06-2.46.06-3.78q0-4,0-8.63c0-6.19,0-13.24,0-21s0-16.32,0-25.48v-7c-.05-2.36.2-4.8-.69-7.05a11.51,11.51,0,0,0-4.41-5.63,11.84,11.84,0,0,0-7.11-1.92l-67,0a11.41,11.41,0,0,0-11.37,10.72c-.07,5.76,0,11.49,0,17.08,0,11.21,0,22,0,32.33q0,7.73,0,15.05v3.64a11.91,11.91,0,0,0,.43,3.48,11.48,11.48,0,0,0,3.66,5.67,12.42,12.42,0,0,0,2.84,1.75,12.11,12.11,0,0,0,3.16.84c1.07.11,2.17.08,3.26.09H289l12.23,0,36.9.08,10,.05,2.61,0,.89,0s-.3,0-.89,0l-2.61,0-10,.05-36.9.08L289,378h-3.22c-1.08,0-2.18,0-3.31-.08a13,13,0,0,1-3.28-.86,13.6,13.6,0,0,1-3-1.81,11.9,11.9,0,0,1-3.8-5.89,12.08,12.08,0,0,1-.46-3.59v-3.64q0-7.32,0-15.05c0-10.3,0-21.12,0-32.33,0-5.61,0-11.29,0-17.11a11.91,11.91,0,0,1,11.88-11.2l67,0a12.33,12.33,0,0,1,7.37,2,11.89,11.89,0,0,1,4.57,5.87,11,11,0,0,1,.69,3.62c0,1.21,0,2.4,0,3.58q0,3.56,0,7c0,9.16,0,17.69,0,25.48s0,14.84,0,21c0,3.1,0,6,0,8.63,0,1.32,0,2.59-.09,3.81a12.5,12.5,0,0,1-.9,3.35,11.78,11.78,0,0,1-7.32,6.51,12.58,12.58,0,0,1-2.57.45Z" style="fill:#e0e0e0"></path><path d="M359,349.14s-14.23-38.53-15.68-40a14,14,0,0,0-3.44-2.11,17.64,17.64,0,0,0-2.17-.94l-.15-.06h0c-4.06-1.49-10.42-3-10.42-3s-1.62,5.52-9.33,5.92c-7.7-.4-9.32-5.92-9.32-5.92s-6.36,1.55-10.42,3h0l-.15.06a17.64,17.64,0,0,0-2.17.94,14,14,0,0,0-3.44,2.11c-1.45,1.44-14.62,40.42-14.62,40.42L289,353.47,299.38,327l-1,34.45h39L336.21,327l12.09,27.52Z" style="fill:#FF725E"></path><path d="M339.35,317c0,.15-9.58.26-21.4.26s-21.39-.11-21.39-.26,9.57-.25,21.39-.25S339.35,316.88,339.35,317Z" style="fill:#fff"></path><path d="M336.32,330.24a7.19,7.19,0,0,1-1.44.1l-3.94.08c-3.32.05-7.91.08-13,.08s-9.66,0-13-.08l-3.93-.08a7.19,7.19,0,0,1-1.44-.1,8.29,8.29,0,0,1,1.44-.1l3.93-.08c3.32-.05,7.91-.08,13-.08s9.66,0,13,.08l3.94.08A8.29,8.29,0,0,1,336.32,330.24Z" style="fill:#fff"></path><path d="M336.32,342.78a8.29,8.29,0,0,1-1.44.1l-3.94.08c-3.32,0-7.91.07-13,.07s-9.66,0-13-.07l-3.93-.08a8.29,8.29,0,0,1-1.44-.1,7.19,7.19,0,0,1,1.44-.1l3.93-.09c3.32,0,7.91-.07,13-.07s9.66,0,13,.07l3.94.09A7.19,7.19,0,0,1,336.32,342.78Z" style="fill:#fff"></path><path d="M336.32,355.31a7.19,7.19,0,0,1-1.44.1l-3.94.08c-3.32.05-7.91.08-13,.08s-9.66,0-13-.08l-3.93-.08a7.19,7.19,0,0,1-1.44-.1,7.19,7.19,0,0,1,1.44-.1l3.93-.08c3.32-.05,7.91-.08,13-.08s9.66,0,13,.08l3.94.08A7.19,7.19,0,0,1,336.32,355.31Z" style="fill:#fff"></path><path d="M299.38,335.57a20.24,20.24,0,0,1-.11-3.15c0-1.95,0-4.68.08-7.75l0,.1-.55-1.36c-1.26-3.17-2.38-6.06-3.16-8.15-.4-1.05-.71-1.9-.91-2.49a4.22,4.22,0,0,1-.27-.94s.2.29.46.86.62,1.4,1.05,2.43c.88,2.06,2.05,4.92,3.31,8.1.19.46.37.92.54,1.36l0,.05v.05c-.07,3.07-.16,5.79-.25,7.75A21.21,21.21,0,0,1,299.38,335.57Z" style="fill:#263238"></path><path d="M336.14,335.57a18.77,18.77,0,0,1-.24-3.14c-.09-2-.18-4.68-.25-7.75v-.05l0-.05c.17-.44.35-.9.54-1.36,1.26-3.18,2.44-6,3.31-8.1.43-1,.79-1.86,1.05-2.43s.42-.88.46-.86a4.22,4.22,0,0,1-.27.94c-.2.59-.51,1.44-.9,2.49-.79,2.09-1.91,5-3.17,8.15l-.55,1.36,0-.1c.06,3.07.09,5.8.08,7.75A21.26,21.26,0,0,1,336.14,335.57Z" style="fill:#263238"></path><path d="M349.59,324.54a42.31,42.31,0,0,1-5.85,3,43.36,43.36,0,0,1-6.08,2.55,42.1,42.1,0,0,1,5.86-3A41.6,41.6,0,0,1,349.59,324.54Z" style="fill:#fff"></path><path d="M353.86,335.81a39.48,39.48,0,0,1-5.62,2.82A38.35,38.35,0,0,1,342.4,341a39.48,39.48,0,0,1,5.62-2.82A38.35,38.35,0,0,1,353.86,335.81Z" style="fill:#fff"></path><path d="M298,329.61a79.13,79.13,0,0,1-11.12-6.37,41.55,41.55,0,0,1,5.69,3A40.51,40.51,0,0,1,298,329.61Z" style="fill:#fff"></path><path d="M293.65,341.54a74.51,74.51,0,0,1-11.35-5.2,37.57,37.57,0,0,1,5.78,2.37A37.22,37.22,0,0,1,293.65,341.54Z" style="fill:#fff"></path><path d="M314.33,322a16.56,16.56,0,0,1,3.23-.21l-.21.21c0-1.32-.05-3-.05-4.76,0-2.21,0-4.2.07-5.65a9.82,9.82,0,0,1,.19-2.33,11,11,0,0,1,.18,2.33c0,1.45.07,3.44.07,5.65,0,1.79,0,3.44-.05,4.76v.21h-.2A17.17,17.17,0,0,1,314.33,322Z" style="fill:#263238"></path><path d="M316.08,314.17a.88.88,0,1,1-.87-.87A.87.87,0,0,1,316.08,314.17Z" style="fill:#e0e0e0"></path><path d="M316.08,319.58a.88.88,0,1,1-.87-.88A.87.87,0,0,1,316.08,319.58Z" style="fill:#e0e0e0"></path></g></svg>
