<svg xmlns="http://www.w3.org/2000/svg" viewBox="0 0 750 750"><g id="freepik--background-simple--inject-129"><path d="M626,128.18,623.33,124c-22.46-35.69-64.3-58-109.14-56.78A128.52,128.52,0,0,0,497,68.8c-40.93,6.69-77.16,33.48-92.89,68.7-9.24,20.71-12.36,44.78-29.23,60.94-22,21-58.17,20.65-90,18.83s-68-2.13-89.9,19c-13.69,13.23-27.57,38.11-28.79,56.34-4.19,62.22,34.17,110.91,80.86,133.76S356.92,450.17,409,442.25c72.92-11.1,154.42-57.86,197.52-112.74S657.39,189.69,626,128.18Z" style="fill:#ebebeb"></path></g><g id="freepik--Label--inject-129"><path d="M636.15,321.77l-66.67-74.9a28.24,28.24,0,0,0-20.88-9.46l-219.49-1.59a28.22,28.22,0,0,0-28.43,28.29l.37,155.42a28.22,28.22,0,0,0,28.34,28.16l218.73-.92A28.21,28.21,0,0,0,569.4,437l67.07-78A28.24,28.24,0,0,0,636.15,321.77Zm-37.1,27a23.28,23.28,0,1,1-12.8-30.33A23.28,23.28,0,0,1,599.05,348.73Z" style="fill:#FF725E"></path><g style="opacity:0.4"><path d="M636.15,321.77l-66.67-74.9a28.24,28.24,0,0,0-20.88-9.46l-219.49-1.59a28.22,28.22,0,0,0-28.43,28.29l.37,155.42a28.22,28.22,0,0,0,28.34,28.16l218.73-.92A28.21,28.21,0,0,0,569.4,437l67.07-78A28.24,28.24,0,0,0,636.15,321.77Zm-37.1,27a23.28,23.28,0,1,1-12.8-30.33A23.28,23.28,0,0,1,599.05,348.73Z"></path></g><path d="M647.7,321.77,581,246.87a28.26,28.26,0,0,0-20.88-9.46l-219.49-1.59a28.21,28.21,0,0,0-28.43,28.29l.36,155.42A28.23,28.23,0,0,0,341,447.69l218.72-.92A28.23,28.23,0,0,0,581,437l67.06-78A28.23,28.23,0,0,0,647.7,321.77Zm-37.09,27a23.28,23.28,0,1,1-12.8-30.33A23.28,23.28,0,0,1,610.61,348.73Z" style="fill:#FF725E"></path><path d="M385.24,316.56c.17-18.84,11.78-30.71,28.06-30.55s27.51,12.07,27.34,31.06S429,347.78,412.73,347.63,385.06,335.4,385.24,316.56Zm39.43.37c.11-12-4.46-17.77-11.49-17.83-6.86-.07-11.71,5.79-11.82,17.61s4.63,17.76,11.49,17.83C419.88,334.6,424.56,328.9,424.67,316.93Zm55.19-29,19,.18-77.35,111-19-.18ZM460.74,370c.18-18.84,11.78-30.71,27.91-30.56,16.28.16,27.66,12.24,27.49,31.07S504.36,401.17,488.07,401C472,400.87,460.57,388.79,460.74,370Zm39.27.36c.11-11.81-4.46-17.76-11.49-17.82-6.86-.07-11.7,5.63-11.81,17.61s4.62,17.76,11.48,17.83C495.22,388,499.9,382.13,500,370.31Z" style="fill:#fff"></path><path d="M640.4,368a10.19,10.19,0,0,1,2.19,1.57c1.37,1.09,3.37,2.73,5.9,4.9s5.61,4.85,9.07,8.08,7.34,7,11.35,11.47a116.24,116.24,0,0,1,11.93,15.57l1.42,2.27,1.34,2.37a52,52,0,0,1,2.54,5A31.29,31.29,0,0,1,689,430.77a18.22,18.22,0,0,1-.92,6.29,16.21,16.21,0,0,1-3.3,5.67,21.28,21.28,0,0,1-11.44,6.54,31.12,31.12,0,0,1-13.51-.32A59.1,59.1,0,0,1,647,444.22a80.18,80.18,0,0,1-21.51-16,103.46,103.46,0,0,1-8.31-9.66q-3.76-4.93-7.16-9.81c-9-13-16-25.5-20.4-36.68-1.1-2.79-2.05-5.47-2.87-8.05-.4-1.29-.78-2.55-1.09-3.8a23.61,23.61,0,0,1-.73-3.69,9.15,9.15,0,0,1,1.65-6.71,9.76,9.76,0,0,1,4.74-3.3,13.28,13.28,0,0,1,2.38-.55,13,13,0,0,1,2.14-.05,10.06,10.06,0,0,1,3.26.71,6.62,6.62,0,0,1,1.74,1.07c.34.31.49.48.46.52s-.24-.07-.62-.3a7.7,7.7,0,0,0-1.76-.79,10.3,10.3,0,0,0-3.1-.44,14.37,14.37,0,0,0-2,.16,13,13,0,0,0-2.17.62,8.81,8.81,0,0,0-4.08,3.08,7.83,7.83,0,0,0-1.2,5.8,21.89,21.89,0,0,0,.78,3.47c.33,1.2.74,2.42,1.16,3.68q1.31,3.78,3,7.88c4.53,10.9,11.61,23.21,20.65,36q3.4,4.8,7.17,9.67a102.14,102.14,0,0,0,8.17,9.4,78.69,78.69,0,0,0,20.84,15.48,57.26,57.26,0,0,0,12.3,4.54,28.77,28.77,0,0,0,12.4.35,18.93,18.93,0,0,0,10.12-5.7,14.7,14.7,0,0,0,3.68-10.26A29.13,29.13,0,0,0,684,420.15a50.58,50.58,0,0,0-2.39-4.84L680.36,413,679,410.74a117.8,117.8,0,0,0-11.49-15.49c-3.86-4.48-7.61-8.32-11-11.64s-6.32-6.1-8.75-8.37L642.24,370A11,11,0,0,1,640.4,368Z" style="fill:#263238"></path><path d="M536.23,212.79c-.14,0-2.94-19.55-6.26-43.71s-5.89-43.76-5.74-43.78,2.94,19.55,6.26,43.71S536.38,212.77,536.23,212.79Z" style="fill:#263238"></path><path d="M618.68,105.76a1.26,1.26,0,0,1-.09.3l-.32.87L617,110.26l-4.76,12.22c-4,10.32-9.48,24.6-15.3,40.47s-10.87,30.3-14.47,40.77c-1.79,5.21-3.24,9.44-4.25,12.41-.5,1.43-.89,2.56-1.17,3.37-.13.36-.24.64-.32.87a1.48,1.48,0,0,1-.12.29,1.05,1.05,0,0,1,.07-.31l.27-.89c.25-.81.61-2,1.07-3.4.94-2.95,2.34-7.21,4.1-12.46,3.52-10.5,8.52-25,14.34-40.83s11.33-30.14,15.43-40.43c2-5.14,3.74-9.3,4.93-12.16l1.37-3.29c.15-.35.28-.63.37-.85Z" style="fill:#263238"></path><path d="M677.76,182.72c.09.11-14.22,11.32-32,25s-32.2,24.74-32.29,24.62,14.23-11.32,32-25S677.68,182.6,677.76,182.72Z" style="fill:#263238"></path><path d="M501.52,216.44c-.12.09-5.65-7-12.36-15.76s-12.07-16-12-16.07,5.65,7,12.36,15.76S501.63,216.35,501.52,216.44Z" style="fill:#263238"></path><path d="M671,271.56c0,.14-8.81-2.3-19.59-5.44s-19.48-5.8-19.44-5.94,8.81,2.3,19.59,5.44S671.05,271.42,671,271.56Z" style="fill:#263238"></path><polygon points="544.99 271.24 551.49 267.5 554.94 260.84 558.69 267.34 565.35 270.8 558.85 274.54 555.39 281.2 551.65 274.7 544.99 271.24" style="fill:#fff"></polygon><polygon points="509.85 260.92 512.13 259.61 513.34 257.28 514.65 259.55 516.98 260.76 514.7 262.07 513.49 264.4 512.18 262.13 509.85 260.92" style="fill:#fff"></polygon><polygon points="532.29 306.85 536.69 304.32 539.03 299.81 541.56 304.21 546.07 306.55 541.67 309.08 539.33 313.59 536.8 309.19 532.29 306.85" style="fill:#fff"></polygon></g><g id="freepik--Stars--inject-129"><polygon points="362.32 202.18 364.22 205.65 367.69 207.55 364.22 209.45 362.32 212.92 360.42 209.45 356.95 207.55 360.42 205.65 362.32 202.18" style="fill:#FF725E"></polygon><polygon points="375 154.66 376.97 154.53 378.56 153.35 378.69 155.33 379.87 156.92 377.89 157.05 376.3 158.22 376.17 156.25 375 154.66" style="fill:#FF725E"></polygon><polygon points="694.86 312.46 696.83 312.33 698.42 311.15 698.55 313.13 699.73 314.72 697.75 314.85 696.16 316.02 696.03 314.05 694.86 312.46" style="fill:#FF725E"></polygon><polygon points="469.55 213.73 471.52 213.6 473.12 212.43 473.25 214.4 474.42 215.99 472.45 216.12 470.85 217.29 470.73 215.32 469.55 213.73" style="fill:#FF725E"></polygon><polygon points="481.57 129.23 483.54 129.1 485.13 127.93 485.26 129.9 486.43 131.49 484.46 131.62 482.87 132.8 482.74 130.82 481.57 129.23" style="fill:#FF725E"></polygon><polygon points="421.02 181.67 424.02 179.94 425.61 176.87 427.34 179.87 430.42 181.47 427.42 183.19 425.82 186.27 424.09 183.27 421.02 181.67" style="fill:#FF725E"></polygon><polygon points="673.07 352.18 676.07 350.45 677.66 347.38 679.39 350.38 682.46 351.97 679.46 353.7 677.87 356.77 676.14 353.77 673.07 352.18" style="fill:#FF725E"></polygon><polygon points="658 297.33 661 295.6 662.6 292.53 664.33 295.53 667.4 297.12 664.4 298.85 662.8 301.93 661.08 298.92 658 297.33" style="fill:#FF725E"></polygon></g></svg>