<svg xmlns="http://www.w3.org/2000/svg" viewBox="0 0 500 500"><g id="freepik--background-simple--inject-2"><path d="M303.08,44.31a39.45,39.45,0,0,0-39.43-3.79C201.22,69.23-4.84,170.54,38.57,238.27c51,79.6,232,205.18,298.37,199.19S478.56,320.12,461.66,246.83C447.46,185.25,352,79.49,303.08,44.31Z" style="fill:#FF725E"></path><path d="M303.08,44.31a39.45,39.45,0,0,0-39.43-3.79C201.22,69.23-4.84,170.54,38.57,238.27c51,79.6,232,205.18,298.37,199.19S478.56,320.12,461.66,246.83C447.46,185.25,352,79.49,303.08,44.31Z" style="fill:#fff;opacity:0.7000000000000001"></path></g><g id="freepik--Character--inject-2"><line x1="92.48" y1="130.51" x2="104.14" y2="130.51" style="fill:none;stroke:#263238;stroke-linecap:round;stroke-linejoin:round"></line><line x1="182.87" y1="130.51" x2="194.53" y2="130.51" style="fill:none;stroke:#263238;stroke-linecap:round;stroke-linejoin:round"></line><line x1="104.14" y1="99.9" x2="110.7" y2="105" style="fill:none;stroke:#263238;stroke-linecap:round;stroke-linejoin:round"></line><line x1="181.41" y1="99.9" x2="174.85" y2="105" style="fill:none;stroke:#263238;stroke-linecap:round;stroke-linejoin:round"></line><line x1="130.38" y1="87.51" x2="131.11" y2="98.44" style="fill:none;stroke:#263238;stroke-linecap:round;stroke-linejoin:round"></line><line x1="155.9" y1="88.96" x2="154.44" y2="98.44" style="fill:none;stroke:#263238;stroke-linecap:round;stroke-linejoin:round"></line><rect x="109.5" y="116.86" width="62.94" height="54.31" style="fill:#fff;stroke:#263238;stroke-linecap:round;stroke-linejoin:round"></rect><rect x="121" y="116.86" width="11.87" height="54.31" style="fill:#FF725E;stroke:#263238;stroke-linecap:round;stroke-linejoin:round"></rect><rect x="144.85" y="116.86" width="27.59" height="54.31" style="fill:#fff;stroke:#263238;stroke-linecap:round;stroke-linejoin:round"></rect><path d="M136.53,112.43l-9.23-4a4,4,0,0,0-.68,0l-.15-.08h-9.29l7.24,3.4a9.66,9.66,0,0,0,.23,1.51,4.79,4.79,0,0,0,3.29,3.16l.06.29h1l16.07.22S140.91,114.64,136.53,112.43Z" style="fill:#FF725E;stroke:#263238;stroke-linecap:round;stroke-linejoin:round"></path><path d="M135.79,116.86s-10-5.39-15.42-7.76-5.61,1.29-5,4.09,4.31,3.45,4.31,3.45Z" style="fill:#FF725E;stroke:#263238;stroke-linecap:round;stroke-linejoin:round"></path><path d="M138.17,112.93h-3.53a3.82,3.82,0,0,0-3.83,3.83H142A3.83,3.83,0,0,0,138.17,112.93Z" style="fill:#FF725E;stroke:#263238;stroke-linecap:round;stroke-linejoin:round"></path><path d="M160.23,108.39h-8.16l-1.06,4c-4.38,2.21-8.5,4.43-8.5,4.43l16.07-.22h1l.05-.29a4.79,4.79,0,0,0,3.3-3.16C163.42,110.87,163.36,108,160.23,108.39Z" style="fill:#FF725E;stroke:#263238;stroke-linecap:round;stroke-linejoin:round"></path><path d="M132.87,116.86s10-5.39,15.43-7.76,5.6,1.29,4.95,4.09-4.31,3.45-4.31,3.45Z" style="fill:#FF725E;stroke:#263238;stroke-linecap:round;stroke-linejoin:round"></path><path d="M111.55,175s-5.26-3.5-4.11-4.61,6.8,1.33,8.09,3,.64,2.79-.43,2.89S111.55,175,111.55,175Z" style="fill:#fff;stroke:#263238;stroke-linecap:round;stroke-linejoin:round"></path><path d="M116,170.92s-8.15-4.23-6.19-.32,6.84,7.5,8.8,8.48,12.72.65,12.72.65-2-3.59-3.92-4.57S116,170.92,116,170.92Z" style="fill:#fff;stroke:#263238;stroke-linecap:round;stroke-linejoin:round"></path><path d="M123.82,170.92s-10.76-5.86-11.09-3.58,8.48,9.78,11.41,11.08a21.1,21.1,0,0,0,7.18,1.31Z" style="fill:#fff;stroke:#263238;stroke-linecap:round;stroke-linejoin:round"></path><path d="M166.2,181s-3.91-9.13-6.85-10.43-29.34,1.3-29.34,1.3-12.72-10.43-11.74-5.22,9.13,11.42,11.41,13,19.24,1,19.24,1l5.22,4.89Z" style="fill:#fff;stroke:#263238;stroke-linecap:round;stroke-linejoin:round"></path><path d="M326.72,195.66a5.53,5.53,0,0,0-.46,3.84,9.44,9.44,0,0,0,2.3,3.37l.77,4.76,10.44.46-4.3-16Z" style="fill:#fff;stroke:#263238;stroke-linecap:round;stroke-linejoin:round"></path><path d="M319.63,166s4.35,28.3,5,30,5.66,3.7,7.41,2.83-1.31-5-1.31-5l.87-27.21S324.2,163.8,319.63,166Z" style="fill:#263238;stroke:#263238;stroke-linecap:round;stroke-linejoin:round"></path><path d="M331.82,174.9s-6.1-.43-6.32.66-.21,4.78.88,5.22,8.49,1.09,9.79.65a3.63,3.63,0,0,0,1.53-5C336.39,174.47,331.82,174.9,331.82,174.9Z" style="fill:#fff;stroke:#263238;stroke-linecap:round;stroke-linejoin:round"></path><path d="M331.82,181.87s-5.88,0-5.66,1.3-.44,4.14,2,4.58a29.33,29.33,0,0,0,8.7-.22,2.57,2.57,0,0,0,1.09-4.57C336.17,181.43,331.82,181.87,331.82,181.87Z" style="fill:#fff;stroke:#263238;stroke-linecap:round;stroke-linejoin:round"></path><path d="M322.37,183.54s-.75-5.48-2.52-5.33c-1.32.11-4.47,1.11-4.18,3.52a28.91,28.91,0,0,0,2.76,8.26,2.57,2.57,0,0,0,4.69-.3C324.07,187.58,322.37,183.54,322.37,183.54Z" style="fill:#fff;stroke:#263238;stroke-linecap:round;stroke-linejoin:round"></path><path d="M332.15,187.74s-5.32,0-5.12,1.26-.4,4,1.77,4.4a25.25,25.25,0,0,0,7.88-.21,2.52,2.52,0,0,0,1-4.4C336.09,187.33,332.15,187.74,332.15,187.74Z" style="fill:#fff;stroke:#263238;stroke-linecap:round;stroke-linejoin:round"></path><path d="M332.4,192.52s-4.45,0-4.28,1-.33,3.33,1.48,3.68a20.71,20.71,0,0,0,6.59-.17,2.11,2.11,0,0,0,.82-3.68C335.7,192.17,332.4,192.52,332.4,192.52Z" style="fill:#fff;stroke:#263238;stroke-linecap:round;stroke-linejoin:round"></path><path d="M318.42,137.34A14.89,14.89,0,0,0,307,161.72c2.73,3.29,7.2,5.65,11.46,5.38,13.06-.8,47.3,17.54,47.3,17.54V119.8S332,137.61,318.42,137.34Z" style="fill:#fff;stroke:#263238;stroke-linecap:round;stroke-linejoin:round"></path><path d="M315.76,152.75a18.61,18.61,0,0,1,9.72-16.35,30,30,0,0,1-7.06.94A14.89,14.89,0,0,0,307,161.72c2.73,3.29,7.2,5.65,11.46,5.38a21.1,21.1,0,0,1,4.52.31A18.56,18.56,0,0,1,315.76,152.75Z" style="fill:#FF725E;stroke:#263238;stroke-linecap:round;stroke-linejoin:round"></path><circle cx="365.72" cy="152.22" r="32.42" transform="translate(131.31 471.55) rotate(-76.32)" style="fill:#fff;stroke:#263238;stroke-linecap:round;stroke-linejoin:round"></circle><path d="M393.35,152.22a27.64,27.64,0,1,1-27.64-27.63A27.65,27.65,0,0,1,393.35,152.22Z" style="fill:#a6a6a6;stroke:#263238;stroke-linecap:round;stroke-linejoin:round"></path><path d="M365.71,145.47V159l-21.26,10.89a27.68,27.68,0,0,1-4.15-28.49Z" style="fill:#fff;stroke:#263238;stroke-linecap:round;stroke-linejoin:round"></path><path d="M372.46,152.22a6.75,6.75,0,1,1-6.74-6.75A6.75,6.75,0,0,1,372.46,152.22Z" style="fill:#fff;stroke:#263238;stroke-linecap:round;stroke-linejoin:round"></path><polygon points="327.14 208.06 326.06 203.53 340.08 201.8 339.77 208.09 327.14 208.06" style="fill:#fff;stroke:#263238;stroke-linecap:round;stroke-linejoin:round"></polygon><polygon points="153.3 187.35 150.07 182.17 164.95 174.62 166.2 180.97 153.3 187.35" style="fill:#fff;stroke:#263238;stroke-linecap:round;stroke-linejoin:round"></polygon><path d="M243.75,179.86s-23.92-2.66-26-1.6-32.42,36.94-32.42,36.94L166.69,178,151,184.9s19.66,67,22.85,67.76,33.48-19.39,33.48-19.39l-1.86,26.57s5.58,22.32,30.3,26.57,39.32-14.88,42.51-21.26a129.12,129.12,0,0,0,6.11-15.67l11.43-33.75S328,242,335.16,245.22s13.81,6.12,14.61,4.52-7.17-44.11-7.17-44.11l-17,.8.8,6.64s-22.06-29-23.92-31.89-7.44-2.39-14.08-4.25S243.75,179.86,243.75,179.86Z" style="fill:#FF725E;stroke:#263238;stroke-linecap:round;stroke-linejoin:round"></path><line x1="207.34" y1="233.27" x2="225.15" y2="219.98" style="fill:none;stroke:#263238;stroke-linecap:round;stroke-linejoin:round"></line><line x1="218.77" y1="225.03" x2="227.8" y2="223.43" style="fill:none;stroke:#263238;stroke-linecap:round;stroke-linejoin:round"></line><line x1="295.83" y1="215.73" x2="301.94" y2="194.2" style="fill:none;stroke:#263238;stroke-linecap:round;stroke-linejoin:round"></line><line x1="298.22" y1="208.82" x2="304.86" y2="199.52" style="fill:none;stroke:#263238;stroke-linecap:round;stroke-linejoin:round"></line><line x1="327.18" y1="228.54" x2="327.45" y2="233.8" style="fill:none;stroke:#263238;stroke-linecap:round;stroke-linejoin:round"></line><line x1="326.39" y1="213.07" x2="326.87" y2="222.54" style="fill:none;stroke:#263238;stroke-linecap:round;stroke-linejoin:round"></line><line x1="185.29" y1="215.2" x2="190.87" y2="226.89" style="fill:none;stroke:#263238;stroke-linecap:round;stroke-linejoin:round"></line><path d="M252.78,176.93l-11.69,2.13s-4.25,3.45-6.64,11.42a96.94,96.94,0,0,0-3.19,14.88l10.1.54-8,8s2.4,3.45,7.44,10.89a158.9,158.9,0,0,0,13,16L239,259.84s18.07-4,29.23-16.21S286,213.07,286,213.07l-8.77-6.91,9.3-1.86s1.86-15.14-8-25S252.78,176.93,252.78,176.93Z" style="fill:#FF725E;stroke:#263238;stroke-linecap:round;stroke-linejoin:round"></path><path d="M279.09,183.31s-3.1,6.14-3.72,17.54c-.48,8.9-5.15,20.24-9.27,28.26-3.27,6.38-6.2,10.66-6.41,10,0,0-1.72-2.76-4.47-10.8-.67-1.92-1.39-4.16-2.17-6.75-4-13.29-7.44-34.81-5.85-39.06a48.69,48.69,0,0,1,2.66-6.11C262.62,193.67,279.09,183.31,279.09,183.31Z" style="fill:#fff;stroke:#263238;stroke-linecap:round;stroke-linejoin:round"></path><path d="M262.88,219.72l3.22,9.39c-3.27,6.38-6.2,10.66-6.41,10,0,0-1.72-2.76-4.47-10.8l4.47-8.07-4.44-8.31,5.24-5.25,7.17,7.18Z" style="fill:#263238;stroke:#263238;stroke-linecap:round;stroke-linejoin:round"></path><polyline points="251.72 215.73 260.49 206.69 271.17 216.77" style="fill:none;stroke:#263238;stroke-linecap:round;stroke-linejoin:round"></polyline><path d="M249.86,176.4a55.4,55.4,0,0,0,3.19,15.68,86.57,86.57,0,0,0,7.44,14.61L273,188.89S259.43,190.22,249.86,176.4Z" style="fill:none;stroke:#263238;stroke-linecap:round;stroke-linejoin:round"></path><path d="M287.87,148.24s3.8-.59,3.8,4.6-2.2,11.58-2.2,11.58Z" style="fill:#fff;stroke:#263238;stroke-linecap:round;stroke-linejoin:round"></path><path d="M286.53,129.1s2.66,24.18,2.92,31.36-.53,13.55-2.92,16.74-12,15.94-17,16.47-10.63-2.12-12.75-4-12.23-17.81-12.23-17.81-7.7-.53-9.56-10.63,8.5-7.7,8.5-7.7-5.58-8.77-6.11-17.27-2.13-11.7,20.73-12.23S286.53,129.1,286.53,129.1Z" style="fill:#fff;stroke:#263238;stroke-linecap:round;stroke-linejoin:round"></path><polyline points="274.57 146.11 280.95 168.16 271.12 165.24" style="fill:none;stroke:#263238;stroke-linecap:round;stroke-linejoin:round"></polyline><line x1="261.29" y1="162.58" x2="253.58" y2="164.18" style="fill:none;stroke:#263238;stroke-linecap:round;stroke-linejoin:round"></line><path d="M257.57,163.91a12.49,12.49,0,0,0,10.36,8.51c8.5,1.32,12.75-.27,12.75-.27" style="fill:none;stroke:#263238;stroke-linecap:round;stroke-linejoin:round"></path><path d="M259.69,168.16s-.26,13.29,4.52,13.82,3.72-9.56,3.72-9.56A22,22,0,0,1,259.69,168.16Z" style="fill:#263238;stroke:#263238;stroke-linecap:round;stroke-linejoin:round"></path><path d="M260.67,177.35c.65,2.42,1.74,4.43,3.54,4.63a2.55,2.55,0,0,0,2.4-1C265.68,179.35,262.47,178,260.67,177.35Z" style="fill:#fff;stroke:#263238;stroke-linecap:round;stroke-linejoin:round"></path><path d="M263,152.22c0,1.47-.65,2.66-1.46,2.66s-1.46-1.19-1.46-2.66.65-2.66,1.46-2.66S263,150.75,263,152.22Z" style="fill:#263238"></path><path d="M280.82,149.83c0,1.47-.66,2.66-1.47,2.66s-1.46-1.19-1.46-2.66.66-2.66,1.46-2.66S280.82,148.36,280.82,149.83Z" style="fill:#263238"></path><path d="M256.77,147.7a11.3,11.3,0,0,1,10.1-3.72" style="fill:none;stroke:#263238;stroke-linecap:round;stroke-linejoin:round"></path><path d="M275.37,142.92s3.45-6.38,9-3.19" style="fill:none;stroke:#263238;stroke-linecap:round;stroke-linejoin:round"></path><path d="M258.36,129.63s-8.23-1.33-6.37,1.07,6.11,5.31,4,7.17-7.44,5-7.17,6.64.79,8.24,0,9.84-2.66,1.86-4.52,1.59-4.52-5.05-5.58-6.38-10.63-10.89-8.77-18.6,21.79-13.82,21.79-13.82S264.47,102.8,273,102.53s5.31,7.71,5,8.5,12.22-.79,14.61,6.91,1.6,9.83-9.3,12.76S258.36,129.63,258.36,129.63Z" style="fill:#263238;stroke:#263238;stroke-linecap:round;stroke-linejoin:round"></path><polygon points="425.98 119.02 404.32 124.62 408.8 126.86 396.48 130.6 421.49 127.24 415.15 124.25 425.98 119.02" style="fill:#263238"></polygon><polygon points="430.42 171.75 408.51 167.22 411.55 171.2 398.84 169.12 422.77 177.14 418.39 171.66 430.42 171.75" style="fill:#263238"></polygon><polygon points="406.86 207.86 388.41 195.2 389.67 200.05 378.76 193.21 397.72 209.88 395.81 203.13 406.86 207.86" style="fill:#263238"></polygon></g></svg>
