<?xml version="1.0" encoding="utf-8"?>
<!-- Generator: Adobe Illustrator 19.2.1, SVG Export Plug-In . SVG Version: 6.00 Build 0)  -->
<svg version="1.1" id="layer" xmlns="http://www.w3.org/2000/svg" xmlns:xlink="http://www.w3.org/1999/xlink" x="0px" y="0px"
	 viewBox="0 0 652 652" style="enable-background:new 0 0 652 652;" xml:space="preserve">
<style type="text/css">
	.st0{fill-rule:evenodd;clip-rule:evenodd;fill:#435F74;}
	.st1{fill-rule:evenodd;clip-rule:evenodd;fill:#FFFFFF;}
</style>
<path class="st0" d="M135.9,353.9l-26.7-51.3l-21.6,51.3H135.9z M26.3,406.4v3.5l32.7,1l12.8-28.3l80,0.3l12.2,28.9l32.1-2.2
	l-85.6-166.4L26.3,406.4z"/>
<path class="st1" d="M524.8,271.2c-16.2,5-25.1,8.9-34.3,24c-25.1,41.1,9.9,100.9,66,84.3C627.3,358.4,594.6,249.4,524.8,271.2"/>
<path class="st0" d="M220.4,396.6c34,29.7,78.5,11,91.2-20.9c8.1-20.3,5.5-110.7,3.9-136.7l-14.2,0.5h-13.8v0.4h0
	c-0.3,10-0.2,20,0,29.9v81.8c-1.6,15.8-10.5,29-29.1,29.6c-12.2-0.2-18.9-3.2-22.3-3.8C231.4,376.6,230,383.8,220.4,396.6"/>
<path class="st1" d="M88,353.1l47.4,0.3c-6.2-16.1-15-36.8-27-46.8L88,353.1z"/>
<path class="st0" d="M230.9,397.2c-3.5-0.3-7.1-0.5-10.6-0.8c4.3-7.2,8.5-14.5,12.8-21.7c6.6,4.1,9.8,5.1,17.5,6.2
	c-1,3.8-2,7.5-3,11.3C242.1,393.8,236.5,395.5,230.9,397.2"/>
<polygon class="st0" points="131,294.7 135.9,353.9 109.2,302.6 "/>
<path class="st0" d="M539.5,238.6c47.9,0,86.8,38.8,86.8,86.7S587.4,412,539.5,412c-47.9,0-86.7-38.8-86.7-86.7
	S491.6,238.6,539.5,238.6 M539.5,268.2c31.5,0,57.1,25.6,57.1,57.1c0,31.5-25.5,57.1-57.1,57.1c-31.5,0-57.1-25.6-57.1-57.1
	C482.4,293.8,508,268.2,539.5,268.2"/>
<rect x="376.1" y="239" class="st0" width="26.9" height="173.1"/>
</svg>
